<svg width="37" height="42" viewBox="0 0 37 42" fill="none" xmlns="http://www.w3.org/2000/svg">
<path d="M21.6727 31.6842C20.2626 34.1403 16.7375 34.1403 15.3274 31.6842L5.65109 14.8289C4.24106 12.3728 6.0036 9.30261 8.82366 9.30261H28.1764C30.9965 9.30261 32.7589 12.3728 31.3489 14.8289L21.6727 31.6842Z" fill="#DD2B29"/>
<path d="M18.5916 42C25.6223 42 31.3218 36.268 31.3218 29.1973C31.3218 22.1266 25.6223 16.3947 18.5916 16.3947C11.5609 16.3947 5.86139 22.1266 5.86139 29.1973C5.86139 36.268 11.5609 42 18.5916 42Z" fill="#FFD933"/>
<path d="M18.4941 22.232C18.5762 22.2084 18.6524 22.1908 18.7227 22.179C18.7931 22.1554 18.8634 22.1377 18.9337 22.1259C19.0158 22.1023 19.1154 22.0906 19.2327 22.0906C19.3616 22.0788 19.4789 22.0847 19.5844 22.1082C19.7016 22.12 19.8071 22.1554 19.9009 22.2143C20.0064 22.2615 20.0826 22.3381 20.1295 22.4442C20.1764 22.5621 20.2057 22.7036 20.2174 22.8687C20.2408 23.0219 20.2526 23.1811 20.2526 23.3461C20.2526 23.5112 20.2467 23.6762 20.235 23.8413C20.235 23.9945 20.235 24.136 20.235 24.2657V33.3023C20.235 33.432 20.235 33.5676 20.235 33.7091C20.2467 33.8388 20.2467 33.9743 20.235 34.1158C20.2233 34.2573 20.1881 34.3929 20.1295 34.5226C20.0709 34.6404 19.9829 34.7407 19.8657 34.8232C19.7016 34.9529 19.4789 35.0177 19.1975 35.0177C18.9279 35.0295 18.6934 35 18.4941 34.9293C18.2831 34.8586 18.1542 34.723 18.1073 34.5226C18.0721 34.3221 18.0545 34.1217 18.0545 33.9213C17.9725 32.3651 17.9314 30.8442 17.9314 29.3588C17.9432 27.8615 17.949 26.323 17.949 24.7432C17.9256 24.8021 17.8435 24.8552 17.7029 24.9023C17.5739 24.9495 17.4215 24.9908 17.2457 25.0261C17.0815 25.0615 16.9233 25.091 16.7709 25.1146C16.6185 25.1381 16.5189 25.1499 16.472 25.1499C16.1672 25.1853 15.8858 25.1558 15.6279 25.0615C15.3817 24.9554 15.2411 24.7196 15.2059 24.3541C15.159 23.9769 15.2411 23.6821 15.4521 23.4699C15.6748 23.2577 15.9562 23.0986 16.2961 22.9924C16.6713 22.8628 17.0347 22.7331 17.3863 22.6034C17.7497 22.4619 18.119 22.3381 18.4941 22.232Z" fill="#F1A700"/>
</svg>
