<svg width="37" height="42" viewBox="0 0 37 42" fill="none" xmlns="http://www.w3.org/2000/svg">
<path d="M21.6727 31.6842C20.2626 34.1403 16.7375 34.1403 15.3274 31.6842L5.65109 14.8289C4.24106 12.3728 6.0036 9.30261 8.82366 9.30261H28.1764C30.9965 9.30261 32.7589 12.3728 31.3489 14.8289L21.6727 31.6842Z" fill="#0962A7"/>
<path d="M18.5916 42C25.6223 42 31.3218 36.268 31.3218 29.1973C31.3218 22.1266 25.6223 16.3947 18.5916 16.3947C11.5609 16.3947 5.86139 22.1266 5.86139 29.1973C5.86139 36.268 11.5609 42 18.5916 42Z" fill="#D1D6DD"/>
<path d="M15.9664 26.3878C15.7906 26.659 15.5796 26.824 15.3334 26.883C15.0989 26.9419 14.8703 26.9242 14.6476 26.8299C14.4249 26.7356 14.2373 26.5823 14.0849 26.3701C13.9442 26.1461 13.8856 25.8926 13.9091 25.6097C13.9208 25.4211 13.9677 25.2147 14.0497 24.9907C14.1318 24.7667 14.2314 24.5545 14.3487 24.3541C14.4776 24.1419 14.6124 23.9474 14.7531 23.7705C14.9055 23.5819 15.0579 23.4227 15.2103 23.2931C15.4916 23.0691 15.8082 22.8745 16.1598 22.7095C16.5232 22.5444 16.8984 22.4206 17.2852 22.3381C17.6838 22.2556 18.0765 22.2202 18.4634 22.232C18.8619 22.2438 19.2312 22.3027 19.5712 22.4088C20.509 22.7036 21.2358 23.1693 21.7516 23.8059C22.2674 24.4425 22.5253 25.2678 22.5253 26.2817C22.5253 26.7651 22.4784 27.2013 22.3846 27.5903C22.3026 27.9676 22.1502 28.3331 21.9274 28.6867C21.7164 29.0404 21.4292 29.4 21.0658 29.7655C20.7141 30.131 20.2745 30.5318 19.747 30.968C19.5712 31.1213 19.3895 31.2745 19.2019 31.4278C19.0143 31.5811 18.8268 31.7343 18.6392 31.8876C18.5806 31.9347 18.4692 32.0055 18.3051 32.0998C18.141 32.1941 17.9945 32.2884 17.8655 32.3827C17.7366 32.4771 17.6604 32.5655 17.6369 32.648C17.6135 32.7305 17.7072 32.7777 17.9183 32.7895C18.1762 32.8131 18.3813 32.819 18.5337 32.8072C18.6861 32.7954 18.8912 32.7895 19.1491 32.7895C19.4539 32.7895 19.7529 32.7836 20.0459 32.7718C20.339 32.76 20.6321 32.7659 20.9251 32.7895C21.0424 32.8013 21.1713 32.8072 21.312 32.8072C21.4527 32.7954 21.5933 32.7954 21.734 32.8072C21.8747 32.8072 22.0095 32.8249 22.1385 32.8602C22.2674 32.8838 22.3788 32.9368 22.4726 33.0194C22.5663 33.1019 22.6367 33.2139 22.6836 33.3554C22.7305 33.4969 22.7539 33.6501 22.7539 33.8152C22.7656 33.9684 22.7539 34.1217 22.7187 34.275C22.6836 34.4164 22.625 34.5284 22.5429 34.611C22.3905 34.7878 22.2029 34.8762 21.9802 34.8762C21.7575 34.8644 21.5465 34.8585 21.3472 34.8585H15.0345C14.9172 34.8585 14.7883 34.8644 14.6476 34.8762C14.5187 34.888 14.4014 34.8762 14.2959 34.8408C14.0849 34.7819 13.9794 34.6699 13.9794 34.5048C13.9911 34.3398 13.997 34.1688 13.997 33.992C13.997 33.6973 14.0673 33.4261 14.208 33.1785C14.3487 32.9192 14.5245 32.6834 14.7355 32.4712C14.9583 32.2472 15.1927 32.0408 15.4389 31.8522C15.6851 31.6636 15.9137 31.4809 16.1247 31.304C16.4295 31.0329 16.7577 30.7617 17.1094 30.4905C17.4611 30.2194 17.7952 29.9482 18.1117 29.6771C18.522 29.3352 18.8678 29.0227 19.1491 28.7398C19.4422 28.4569 19.6767 28.1916 19.8525 27.944C20.0284 27.6964 20.1573 27.4547 20.2394 27.219C20.3214 26.9714 20.3625 26.712 20.3625 26.4408C20.3625 25.8396 20.1808 25.3798 19.8173 25.0615C19.4539 24.7314 18.9909 24.5663 18.4282 24.5663C18.0179 24.5663 17.6311 24.6547 17.2676 24.8316C16.916 25.0084 16.6229 25.2678 16.3884 25.6097C16.3181 25.7394 16.2478 25.875 16.1774 26.0164C16.1188 26.1461 16.0485 26.2699 15.9664 26.3878Z" fill="#808B97"/>
</svg>
