<svg width="37" height="42" viewBox="0 0 37 42" fill="none" xmlns="http://www.w3.org/2000/svg">
<path d="M21.6727 31.6842C20.2626 34.1403 16.7375 34.1403 15.3274 31.6842L5.65109 14.8289C4.24106 12.3728 6.0036 9.30261 8.82366 9.30261H28.1764C30.9965 9.30261 32.7589 12.3728 31.3489 14.8289L21.6727 31.6842Z" fill="#DE2C2B"/>
<path d="M18.5916 42C25.6223 42 31.3218 36.268 31.3218 29.1973C31.3218 22.1266 25.6223 16.3947 18.5916 16.3947C11.5609 16.3947 5.86139 22.1266 5.86139 29.1973C5.86139 36.268 11.5609 42 18.5916 42Z" fill="#FF9424"/>
<path d="M14.7399 24.1949C14.5875 24.0534 14.5113 23.8412 14.5113 23.5583C14.523 23.4286 14.5465 23.3048 14.5817 23.1869C14.6168 23.0572 14.6813 22.9452 14.7751 22.8509C15.033 22.6151 15.3085 22.4796 15.6015 22.4442C15.8946 22.4088 16.2111 22.3793 16.5511 22.3558C16.8207 22.344 17.061 22.344 17.272 22.3558C17.483 22.3558 17.7234 22.3558 17.993 22.3558C18.4033 22.3558 18.8488 22.3617 19.3294 22.3735C19.8217 22.3852 20.2848 22.4029 20.7185 22.4265C20.8944 22.4383 21.0702 22.4619 21.2461 22.4972C21.4219 22.5326 21.5802 22.5974 21.7208 22.6918C21.8615 22.7743 21.9729 22.8863 22.0549 23.0278C22.1487 23.1575 22.2015 23.3225 22.2132 23.5229C22.2249 23.7587 22.1897 23.9827 22.1077 24.1949C22.0373 24.4071 21.9377 24.6134 21.8088 24.8139C21.6798 25.0025 21.5333 25.1852 21.3691 25.3621C21.2168 25.5271 21.0702 25.6804 20.9295 25.8219C20.6716 26.093 20.3786 26.3819 20.0503 26.6884C19.7221 26.9949 19.429 27.2838 19.1711 27.5549C19.6283 27.6139 20.0679 27.72 20.4899 27.8732C20.9237 28.0265 21.3047 28.2387 21.6329 28.5099C21.9611 28.781 22.219 29.1229 22.4066 29.5356C22.6059 29.9364 22.7055 30.4198 22.7055 30.9857C22.7055 31.5516 22.5942 32.0762 22.3714 32.5596C22.1604 33.0429 21.8615 33.4673 21.4747 33.8328C21.0878 34.1865 20.6306 34.4636 20.1031 34.664C19.5756 34.8644 18.9953 34.9646 18.3623 34.9646C18.0926 34.9646 17.7996 34.941 17.483 34.8939C17.1783 34.8467 16.8735 34.776 16.5687 34.6817C16.2639 34.5873 15.9708 34.4694 15.6895 34.328C15.4198 34.1747 15.1854 33.992 14.9861 33.7798C14.8454 33.6383 14.7223 33.4732 14.6168 33.2846C14.523 33.0842 14.4644 32.8838 14.441 32.6833C14.4293 32.4711 14.4703 32.2825 14.5641 32.1175C14.6579 31.9406 14.822 31.8109 15.0564 31.7284C15.2323 31.6695 15.4023 31.6459 15.5664 31.6577C15.7305 31.6695 15.8887 31.7107 16.0411 31.7815C16.1935 31.8404 16.3401 31.9111 16.4808 31.9937C16.6331 32.0762 16.7797 32.1587 16.9204 32.2412C17.3541 32.5124 17.8054 32.6716 18.2743 32.7187C18.755 32.7659 19.2239 32.6539 19.6811 32.3827C19.939 32.2295 20.1265 32.0408 20.2438 31.8168C20.361 31.581 20.4079 31.3452 20.3844 31.1095C20.3727 30.8737 20.2965 30.6497 20.1558 30.4374C20.0269 30.2252 19.8452 30.0484 19.6107 29.9069C19.388 29.7772 19.1418 29.6888 18.8722 29.6417C18.6026 29.5945 18.3329 29.5473 18.0633 29.5002C17.7937 29.453 17.5358 29.3882 17.2896 29.3057C17.0434 29.2231 16.8324 29.0817 16.6566 28.8812C16.4573 28.6572 16.3928 28.4156 16.4632 28.1562C16.5335 27.8968 16.6625 27.6433 16.85 27.3958C17.0493 27.1482 17.2662 26.9124 17.5006 26.6884C17.7468 26.4644 17.9402 26.2758 18.0809 26.1225C18.163 26.04 18.2568 25.9398 18.3623 25.8219C18.4795 25.704 18.585 25.5861 18.6788 25.4682C18.7843 25.3503 18.8722 25.2383 18.9425 25.1322C19.0246 25.0143 19.0773 24.9082 19.1008 24.8139C19.136 24.7196 19.1184 24.6547 19.048 24.6193C18.9777 24.5722 18.8898 24.5486 18.7843 24.5486C18.6788 24.5368 18.5615 24.5368 18.4326 24.5486C18.3154 24.5486 18.2216 24.5486 18.1512 24.5486H16.9731C16.809 24.5486 16.6273 24.5545 16.428 24.5663C16.2287 24.5663 16.0236 24.5604 15.8126 24.5486C15.6133 24.525 15.414 24.4897 15.2147 24.4425C15.0271 24.3953 14.8689 24.3128 14.7399 24.1949Z" fill="#DB4004"/>
</svg>
